<svg width="89" height="57" viewBox="0 0 89 57" fill="none" xmlns="http://www.w3.org/2000/svg">
<path d="M82.027 16.621C82.027 16.621 79.332 12.849 75.819 15.306C72.307 17.759 73.514 22.116 74.334 22.871C74.334 22.871 75.08 20.195 77.077 21.041C79.261 21.965 77.945 26.098 73.852 28.37C69.777 30.631 62.957 28.242 62.525 20.883L64.835 19.172L63.795 16.292L61.334 18.113L62.318 20.838C57.992 26.59 51.082 24.939 48.882 20.888C46.649 16.774 47.759 12.581 50.096 12.973C52.235 13.331 51.428 15.991 51.428 15.991C52.526 15.795 55.883 12.767 54.237 8.808C52.591 4.849 48.294 6.584 48.294 6.584C47.552 1.96 44.418 0 44.418 0C44.418 0 41.283 1.96 40.539 6.585C40.539 6.585 36.242 4.851 34.596 8.809C32.95 12.768 36.308 15.796 37.405 15.992C37.405 15.992 36.598 13.333 38.737 12.974C41.075 12.582 42.185 16.775 39.951 20.889C37.737 24.966 30.752 26.614 26.433 20.73L27.44 17.938L24.98 16.116L23.939 18.996L26.315 20.755V20.783C25.941 28.221 19.074 30.64 14.982 28.369C10.888 26.097 9.573 21.965 11.757 21.04C13.754 20.194 14.5 22.87 14.5 22.87C15.32 22.116 16.528 17.759 13.015 15.305C9.501 12.849 6.806 16.62 6.806 16.62C3.696 13.119 0 13.148 0 13.148L16.964 56.903H44.418H71.869L88.833 13.148C88.833 13.15 85.137 13.12 82.027 16.621Z" fill="url(#paint0_linear_9674_9)"/>
<defs>
<linearGradient id="paint0_linear_9674_9" x1="44.4165" y1="0" x2="44.4165" y2="56.903" gradientUnits="userSpaceOnUse">
<stop stop-color="#F9E4B7"/>
<stop offset="0.5" stop-color="#E6C27A"/>
<stop offset="0.75" stop-color="#C6A14D"/>
<stop offset="0.875" stop-color="#8C6C3A"/>
<stop offset="1" stop-color="#F9E4B7"/>
</linearGradient>
</defs>
</svg>
